<svg width="100" height="100" viewBox="0 0 100 100" fill="none" xmlns="http://www.w3.org/2000/svg">
<path d="M96.405 50C96.405 75.63 75.63 96.405 50 96.405C24.37 96.405 3.59497 75.63 3.59497 50C3.59497 24.37 24.37 3.595 50 3.595C75.63 3.595 96.405 24.37 96.405 50Z" fill="#00AAA6"/>
<path d="M79.36 66.78C78.835 66.13 77.87 66.055 77.16 66.495C76.485 66.91 74.5 67.855 68.67 69.875C66.03 70.79 63.735 70.965 61.885 70.965C59.46 70.965 57.735 70.425 56.415 69.575C54.455 68.31 53.225 66.18 52.48 63.385C51.73 60.615 51.525 57.28 51.5 54.02C51.515 50.215 49.97 47.485 47.815 46.04C46.3 45.01 44.64 44.555 43.115 44.38L69.98 22.355C70.73 21.74 70.84 20.635 70.225 19.885C69.61 19.135 68.51 19.025 67.755 19.64L39.86 42.505L42.765 33.235C42.935 32.725 44.01 29.665 44.035 26.745C44.03 25.705 43.91 24.645 43.36 23.615C42.785 22.45 41.335 21.545 39.83 21.605C38.685 21.605 37.5 21.955 36.125 22.605C27.32 26.745 25.435 27.825 25.345 27.87C24.505 28.35 24.21 29.425 24.69 30.265C25.175 31.11 26.25 31.4 27.09 30.92C27.09 30.92 27.17 30.875 27.465 30.715C28.365 30.245 31.045 28.875 37.62 25.785C38.25 25.485 39.45 25.035 40.09 25.34C40.545 25.56 40.57 26.445 40.57 26.74C40.57 27.82 40.26 29.23 39.98 30.3C39.845 30.84 39.7 31.305 39.595 31.625C39.495 31.95 39.435 32.115 39.435 32.115L39.41 32.185L25.375 76.975C25.085 77.9 25.595 78.885 26.525 79.175C26.7 79.23 26.875 79.255 27.055 79.255C27.8 79.255 28.495 78.775 28.73 78.025L38.095 48.145C38.16 48.135 38.345 48.1 38.485 48.07C38.92 47.98 40.025 47.79 41.31 47.79C42.86 47.78 44.62 48.085 45.82 48.935C46.995 49.79 47.93 51.06 47.995 54.05C48.04 58.565 48.34 63.435 50.22 67.455C51.165 69.46 52.55 71.26 54.51 72.525C56.46 73.795 58.925 74.48 61.87 74.48H61.89C64.15 74.48 66.75 74.215 69.635 73.26C76.875 70.855 78.485 69.575 78.485 69.575C79.42 69.305 79.955 68.335 79.69 67.4C79.625 67.165 79.51 66.96 79.37 66.78H79.36Z" fill="white" stroke="white" stroke-width="2.64"/>
</svg>
